<svg width="20" height="20" viewBox="0 0 20 20" fill="none" xmlns="http://www.w3.org/2000/svg">
<path d="M18.9321 11.4102C19.0078 10.944 19.0454 10.4724 19.0446 10.0002C19.0446 7.60129 18.0917 5.30066 16.3954 3.60439C14.6992 1.90813 12.3985 0.955175 9.99965 0.955175C9.52738 0.954442 9.05583 0.992065 8.58965 1.06768C7.5442 0.441429 6.3195 0.182406 5.11002 0.331741C3.90054 0.481075 2.77563 1.0302 1.9139 1.89193C1.05218 2.75365 0.503047 3.87857 0.353713 5.08805C0.204379 6.29753 0.463401 7.52223 1.08965 8.56768C1.00527 9.04064 0.96012 9.51977 0.954647 10.0002C0.954647 12.3991 1.9076 14.6997 3.60387 16.396C5.30013 18.0922 7.60076 19.0452 9.99965 19.0452C10.4719 19.0459 10.9435 19.0083 11.4096 18.9327C12.4551 19.5589 13.6798 19.8179 14.8893 19.6686C16.0987 19.5193 17.2237 18.9701 18.0854 18.1084C18.9471 17.2467 19.4962 16.1218 19.6456 14.9123C19.7949 13.7028 19.5359 12.4781 18.9096 11.4327L18.9321 11.4102ZM14.2971 14.1102C13.8738 14.6955 13.2904 15.146 12.6171 15.4077C11.7864 15.7337 10.8993 15.8917 10.0071 15.8727C8.96867 15.9161 7.93554 15.7023 6.99965 15.2502C6.45401 14.9569 5.9861 14.5378 5.63465 14.0277C5.31271 13.5919 5.12974 13.0691 5.10965 12.5277C5.10886 12.3872 5.13709 12.2481 5.19259 12.119C5.24808 11.9899 5.32964 11.8737 5.43215 11.7777C5.65931 11.5843 5.95174 11.4851 6.24965 11.5002C6.49861 11.4955 6.74092 11.5807 6.93215 11.7402C7.14146 11.936 7.3031 12.1772 7.40465 12.4452C7.53477 12.7584 7.70088 13.0554 7.89965 13.3302C8.09775 13.5839 8.35535 13.7848 8.64965 13.9152C9.04939 14.0867 9.48256 14.1661 9.91715 14.1477C10.5361 14.1777 11.1492 14.0152 11.6721 13.6827C11.8728 13.5651 12.0397 13.3977 12.1567 13.1966C12.2736 12.9956 12.3367 12.7677 12.3396 12.5352C12.3461 12.3723 12.3181 12.2099 12.2573 12.0587C12.1966 11.9075 12.1045 11.7708 11.9871 11.6577C11.7201 11.4116 11.399 11.2318 11.0496 11.1327C10.6596 11.0052 10.1421 10.8777 9.48965 10.7352C8.74027 10.5607 8.0094 10.3146 7.30715 10.0002C6.75457 9.7737 6.26732 9.41278 5.88965 8.95018C5.53144 8.47336 5.34628 7.88877 5.36465 7.29268C5.35859 6.68668 5.55379 6.0958 5.91965 5.61267C6.33754 5.09349 6.89405 4.7034 7.52465 4.48767C8.322 4.22284 9.15988 4.10096 9.99965 4.12768C10.6567 4.11605 11.3117 4.20457 11.9421 4.39018C12.4369 4.53708 12.9016 4.77071 13.3146 5.08017C13.6397 5.3243 13.9104 5.63334 14.1096 5.98767C14.2718 6.2739 14.3595 6.59626 14.3646 6.92518C14.3637 7.06539 14.3347 7.20399 14.2793 7.3328C14.2239 7.46161 14.1433 7.57803 14.0421 7.67518C13.9401 7.78577 13.8159 7.87364 13.6776 7.93308C13.5394 7.99252 13.3901 8.02219 13.2396 8.02017C12.9984 8.03895 12.7592 7.9637 12.5721 7.81018C12.3753 7.62055 12.2107 7.40017 12.0846 7.15768C11.8989 6.77542 11.6298 6.43969 11.2971 6.17517C10.8606 5.90304 10.3468 5.78183 9.83465 5.83017C9.30896 5.80801 8.78806 5.93824 8.33465 6.20517C8.16995 6.29312 8.03086 6.42227 7.93096 6.58C7.83106 6.73774 7.77376 6.91869 7.76465 7.10518C7.75871 7.30894 7.82514 7.50822 7.95215 7.66768C8.10173 7.84099 8.28559 7.98144 8.49215 8.08017C8.71211 8.19396 8.94337 8.28446 9.18215 8.35018C9.42215 8.41768 9.81215 8.51517 10.3596 8.64268C11.0496 8.79268 11.6646 8.95768 12.2271 9.13768C12.7303 9.29096 13.2098 9.51307 13.6521 9.79768C14.038 10.0417 14.3554 10.3798 14.5746 10.7802C14.7975 11.2369 14.9008 11.7427 14.8746 12.2502C14.8814 12.9153 14.6794 13.5658 14.2971 14.1102Z" fill="white"/>
</svg>
